<svg version="1.2" xmlns="http://www.w3.org/2000/svg" viewBox="-14.81470388019059 0 65.9125936010892 183.456" width="65.9125936010892" height="183.456">
    <style>.a{fill:#35c4d6}.b{fill:#268d8c}.c{fill:#215c4f}.d{fill:#0d2b24}.e{fill:#67c35b}</style>
    <path class="a" d="m4.3 157.4h91.3v38.1h-91.3z"></path>
    <path class="b" d="m4.3 119.4h91.3v38h-91.3z"></path>
    <path class="c" d="m4.3 81.3h91.3v38h-91.3z"></path>
    <path class="d" d="m4.3 43.2h91.3v38.1h-91.3z"></path>
    <path class="e" d="m4.3 5.1h91.3v38.1h-91.3z"></path>
    <path d="m554 84.6c0-15.3 12.5-27.7 27.8-27.7h19.7v25.3c0 11.9-9.7 21.5-21.6 21.5h-25.9z"></path>
    <path d="m194.6 102.8c-2.8 1.1-5.7 2.3-8.6 3.2l-1.5 0.5v88.9h-46.8v-167.6c0-10.4 8.3-19.3 19.4-20.6 7-0.9 14.4-1.8 20.1-2.5 2.9-0.4 5.3-0.7 7-0.9q0.1-0.1 0.2-0.1v63.6l3.9-1.4c0.7-0.2 1.2-0.4 1.7-0.6q2-0.7 4-1.5c7.8-3 15.9-6.1 24.3-7.8 10.2-2.1 19.4-2 28.4 0.1 13.9 3.3 22.7 11.5 27 25 1.7 5.6 2.6 11.7 2.6 18.9q0 29.4 0 58.9v36.5h-46.9v-16q0-33.5 0-66.9c0-2.5-0.2-4.3-0.6-6-1.2-5.1-4.9-8.3-10.6-8.9-5.4-0.6-10.3 0.6-14.1 1.8-3.2 1-6.4 2.2-9.5 3.4z"></path>
    <path fill-rule="evenodd" d="m379.3 195.4l-1.9-11.9-3.5 1.6q-0.9 0.3-1.7 0.7-2.3 1-4.6 2.1c-6.5 3-13.2 6.1-20.3 7.9-12.6 3.3-23 3.3-34.6 0.1-14.3-3.9-23.3-13.1-26.7-27.2-1.2-4.9-1.9-10.4-2-16.2-0.2-14.8-0.1-29.8 0.2-44.5 0.2-9.4 2.3-18 6.3-25.6 6.1-11.5 16.4-18.9 31.6-22.5 9.2-2.2 16.6-2.7 24.9-2.7q16.7 0 33.3 0 9.1 0 18.2 0h20.3v138.2zm-6.7-49.2c0-11.5 0-23.2 0-34.5v-12.8q0-0.8-0.1-1.5 0-0.3 0-0.5l-0.1-1.3-1.1-0.6q-0.1 0-0.2 0c-0.2-0.2-0.7-0.5-1.4-0.5q0 0 0 0-3.8 0.1-7.7 0.1c-6.1 0-12.4 0-18.7 0.3-9.2 0.5-12.4 6-13.4 10.5q-0.6 2.5-0.7 4.8c-0.1 9.2-0.1 17.8-0.2 26.2 0 3.5 0 7.2 0.3 10.9 0.4 5.5 4.1 9.5 9.5 10q3 0.4 5.7 0.4 4 0 7.3-0.8c4-0.9 7.8-2.3 11.5-3.6 1.9-0.7 3.8-1.5 5.8-2.1 3.2-1 3.5-3.3 3.5-5z"></path>
    <path d="m543.1 89.8c-20.6 23.1-38.7 43.4-55.4 62-2.2 2.4-2.9 4.8-2.2 7.8l0.4 1.7h60.1v34.1h-119.8v-5.8c0-8.1 0-16.5 0.1-24.8 0-0.6 0.3-1.4 0.7-1.8 21.2-24 38.8-43.7 55.4-62.3 1.9-2.2 2.6-4.5 2-7.5l-0.3-1.8h-57.8v-34.1h117.6v6.9c0 7.8 0 15.9-0.1 23.8 0 0.6-0.3 1.4-0.7 1.8z"></path>
    <path d="m560.1 118.3c4.8-4.6 11.1-7 17.8-6.8h21.3v83.9h-46.6v-59.5c0-6.7 2.6-12.9 7.5-17.6z"></path>
</svg>