<?xml version="1.0" encoding="UTF-8"?><svg xmlns="http://www.w3.org/2000/svg" viewBox="0 0 266.22 73.66"><defs><style>.d,.e{fill:#009640;}.f,.g{fill:#fff;}.h,.i{fill:#3ea3dc;}.g,.e,.j,.i{fill-rule:evenodd;}.k{stroke-width:.34px;}.k,.l,.m{stroke:#1d1d1b;}.k,.l,.m,.n{fill:none;stroke-miterlimit:3.86;}.o,.j{fill:#e30613;}.p{fill:#7c7c7b;}.q{fill:#004388;}.r{fill:#d8c264;}.l{stroke-width:.31px;}.s{fill:#00497f;}.t{fill:#955b29;}.m{stroke-width:1.23px;}.n{stroke:#7c7c7b;stroke-width:.2px;}.u{fill:#d0d0d0;}</style></defs><g id="a"/><g id="b"><g id="c"><rect class="f" x="54.09" y="11.52" width="212.13" height="47.85"/><rect class="s" x="57.2" y="14.63" width="205.9" height="41.62"/><path class="g" d="M130.45,21.73c1.93,0,2.98,1.22,2.98,3.53s-1.05,3.55-2.98,3.55-3-1.24-3-3.55,1.07-3.53,3-3.53m0-2.06c-3.56,0-5.49,1.96-5.49,5.59s1.93,5.6,5.49,5.6,5.49-1.99,5.49-5.6-1.93-5.59-5.49-5.59Z"/><path class="f" d="M225.65,19.75c-.36,.09-.8,.11-1.3,.11h-6.3c-.42,0-.69,0-.82,.36l-.67,1.98c.74-.2,1.38-.28,1.85-.28h1.41v6.73c0,.91-.11,1.57-.44,2.04h3.42c-.33-.5-.46-1.16-.46-2.04v-6.73h1.93c.61,0,.82,0,.96-.57l.41-1.6"/><path class="f" d="M227.56,19.87h-.18c-.4,0-.51,.17-.64,.61l-.5,1.74c.8-.33,1.42-.47,2.2-.47h2.2l-5.31,8.95c.99-.03,1.99-.05,3.01-.05,2.68,0,4.37,.11,5.05,.11,.52,0,.74-.09,.85-.69l.37-1.85c-.57,.31-1.22,.57-1.9,.57s-1.62-.06-2.74-.06c-.28,0-.27,.02-.61,.03l5.2-8.9h-6.99"/><path class="f" d="M146.81,25.49v-3.52c-.03-1.47,.46-2.11,.46-2.11h-3.41c-.31,0,0,0-.32-.06-.22,.71-.53,1.38-.94,2.09,1-.24,1.15-.33,1.65-.33h.04v6.88c0,1.22-.05,1.58-.29,2.1-.41,.92-1.22,1.76-2.21,2.28,.56,.41,1.08,.63,1.56,.63,.52,0,1.1-.32,1.79-.97,.36-.34,.66-.72,.92-1.13,.45-.7,.74-1.47,.74-2.98v-2.88"/><path class="g" d="M173.04,21.6c-.45,.04-1.02,.14-1.71,.3,.41-.71,.72-1.38,.94-2.09,.31,.06,.61,.06,.93,.06h2.32c.32,0,.64-.02,.97-.02,2.57,0,3.86,1.29,3.86,3.26,0,1.26-.55,2.26-1.54,2.78,0,0,1.8,4.22,3.85,5.44-1.09,.51-3.75-.76-4.67-2.5l-1.51-2.36c-.3,.03-.45,.04-.78,.04h-.33v2.15c0,.9,.17,1.59,.47,2.04h-3.25c.35-.52,.45-1.18,.45-2.04v-6.75c0-.11,0-.21,0-.32m2.33,3.05c.16,.02,.24,.03,.27,.03h.42c1.33,0,2.01-.6,2.01-1.57s-.66-1.51-1.92-1.51c-.27,0-.53,.03-.79,.06v2.98Z"/><path class="g" d="M202.64,21.6c-.45,.04-1.02,.14-1.71,.3,.41-.71,.72-1.38,.94-2.09,.31,.06,.61,.06,.93,.06h2.32c.32,0,.64-.02,.97-.02,2.57,0,3.86,1.29,3.86,3.26,0,1.26-.55,2.26-1.54,2.78,0,0,1.8,4.22,3.85,5.44-1.08,.51-3.99-.76-4.91-2.5l-1.51-2.36c-.3,.03-.21,.04-.54,.04h-.33v2.15c0,.9,.17,1.59,.47,2.04h-3.25c.35-.52,.45-1.18,.45-2.04v-6.75c0-.11,0-.21,0-.32m2.33,3.05c.16,.02,.23,.03,.27,.03h.42c1.33,0,2.01-.6,2.01-1.57s-.66-1.51-1.92-1.51c-.27,0-.53,.03-.79,.06v2.98Z"/><path class="f" d="M88.68,19.86h3.57c.52,0,.72,.06,.75,.47l-.47,1.63c-.42-.19-.91-.19-1.48-.19h-1.9v2.31h2.39c.36,0,.69,0,1.02-.09l-.42,2.02c-.35-.06-.68-.08-.97-.08h-2.02v2.84h2.73c.71,0,1.22-.06,1.54-.22l-.3,1.49c-.12,.64-.2,.68-.94,.68-.58,0-2.08-.08-3.68-.08-.6,0-1.34,.02-2.2,.05,.34-.69,.42-1.33,.42-2.04v-6.8c0-.09,0-.18,0-.27-.45,.04-1.02,.14-1.71,.3,.41-.71,.72-1.38,.94-2.09,.31,.06,.61,.06,.93,.06h1.8"/><path class="f" d="M95.47,19.86h2.81c-.91,2.58-1.24,4.77-1.24,6.08,0,1.99,.82,2.89,2.59,2.89,.99,0,1.8-.27,2.29-.71v-6.18c0-.86-.09-1.52-.46-2.07h3.41c-.38,.57-.42,1.24-.42,2.1v6.17c0,1.1,.25,1.81,.85,2.17l-2.54,.55c-.3-.3-.49-.52-.53-.72-.94,.52-1.93,.75-3.06,.75-3.09,0-4.58-1.57-4.58-4.8,0-1.71,.37-3.24,.54-4.47-.42,.05-.92,.14-1.51,.28,.41-.71,.72-1.38,.94-2.09,.31,.06,.61,.06,.93,.06"/><path class="f" d="M123.36,20.08l1.16,.85c-1.1,.68-2.17,1.54-3.15,2.56l-1.45,1.47,1.6,1.7c1.4,1.48,2.9,2.45,3.81,2.76-1.11,.88-1.82,1.41-2.35,1.41-.6,0-1.6-.86-3.06-2.64l-1.55-1.87-.55,.49v1.84c0,.88,.12,1.54,.46,2.04h-3.34c.35-.52,.46-1.18,.46-2.04v-6.73c0-.11,0-.22,0-.33-.45,.04-1.02,.14-1.7,.3,.41-.71,.72-1.38,.94-2.09,.31,.06,.61,.06,.93,.06h2.73c-.33,.47-.46,1.16-.46,2.06v2.76l1.99-2.32c1.41-1.65,2.28-2.51,2.9-2.51,.2,0,.42,.08,.64,.24"/><path class="f" d="M161.19,19.86h2.79c-.91,2.58-1.24,4.77-1.24,6.08,0,1.99,.82,2.89,2.59,2.89,.99,0,1.8-.27,2.29-.71v-6.18c0-.86-.1-1.52-.46-2.07h3.41c-.38,.57-.42,1.24-.42,2.1v6.17c0,1.1,.25,1.81,.85,2.17l-2.54,.55c-.3-.3-.49-.52-.53-.72-.94,.52-1.93,.75-3.06,.75-3.09,0-4.58-1.57-4.58-4.8,0-1.71,.36-3.24,.54-4.47-.41,.05-.91,.14-1.49,.27,.41-.71,.72-1.38,.94-2.09,.31,.06,.61,.06,.93,.06"/><path class="f" d="M186.35,20.04c-.36,.8-.39,1.45-.39,2.07v6.62h2.17c.36,0,.91-.18,1.53-.47l-.32,1.9c-.09,.52-.33,.6-.85,.6-.99,0-2.19-.13-3.98-.13-.49,0-.99,.03-1.47,.05,.35-.57,.42-1.08,.42-1.66v-6.91c0-.17,0-.35-.01-.52-.45,.05-1.01,.14-1.69,.3,.41-.71,.72-1.38,.94-2.09,.31,.06,.61,.06,.93,.06h2.97l-.25,.18"/><path class="f" d="M113.16,20.23c-.36-.29-1.4-.51-2.73-.51-2.48,0-4.02,1.43-4.02,3.03,0,2.99,4.51,3.34,4.51,4.96,0,.6-.59,1.17-1.6,1.17-1.09,0-2.25-.34-3.06-1.1l-.19,2v.05c0,.66,1.28,1.05,3.19,1.05,2.76,0,4.33-1.53,4.32-3.31-.02-2.42-1.42-2.61-3.08-3.58-1.03-.6-1.74-.98-1.62-1.61,.09-.49,.45-.78,1.27-.78,.68,0,1.61,.1,2.41,.56l.59-1.91"/><path class="f" d="M212.48,19.86c.33,.5,.46,1.18,.46,2.06v6.73c0,.88-.12,1.54-.46,2.04h3.42c-.33-.49-.45-1.15-.45-2.04v-6.73c0-.9,.13-1.57,.45-2.06h-3.42"/><path class="g" d="M154.51,21.59c-1.37,1.57-2.12,3.6-2.33,4.18l1.86,.95,1.95-.97s-.4-2.54-1.48-4.15m1.78,6.11c.09,.75,.22,1.77-.08,2.99h2.86c-.16-4.47-1.38-8.26-3.34-10.83h-3.96c-.31,0-.61,0-.93-.06-.22,.71-.53,1.38-.94,2.09,1-.24,1.76-.33,2.26-.33h.27c-2.37,2.62-3.6,5.62-3.6,8.89v.25h2.72c-.24-1.31-.09-2.3,.09-3.09l2.38,1.2,2.27-1.1Z"/><path class="g" d="M196.08,21.59c-1.37,1.57-2.11,3.6-2.33,4.18l1.86,.95,1.95-.97s-.4-2.54-1.48-4.15m1.78,6.11c.09,.75,.22,1.77-.08,2.99h2.86c-.16-4.47-1.38-8.26-3.34-10.83h-3.96c-.31,0-.61,0-.93-.06-.22,.71-.53,1.38-.94,2.09,1-.24,1.76-.33,2.26-.33h.27c-2.37,2.62-3.6,5.62-3.6,8.89v.25h2.72c-.24-1.31-.09-2.3,.09-3.09l2.38,1.2,2.27-1.1Z"/><path class="g" d="M241.05,21.59c-1.37,1.57-2.12,3.6-2.33,4.18l1.86,.95,1.95-.97s-.4-2.54-1.48-4.15m1.78,6.11c.09,.75,.22,1.77-.08,2.99h2.86c-.16-4.47-1.38-8.26-3.34-10.83h-3.96c-.31,0-.61,0-.93-.06-.22,.71-.53,1.38-.94,2.09,1-.24,1.76-.33,2.26-.33h.27c-2.37,2.62-3.6,5.62-3.6,8.89v.25h2.72c-.24-1.31-.09-2.3,.09-3.09l2.38,1.2,2.27-1.1Z"/><path class="g" d="M167.77,42.11c1.93,0,2.98,1.22,2.98,3.53s-1.05,3.55-2.98,3.55-3-1.24-3-3.55,1.07-3.53,3-3.53m0-2.06c-3.56,0-5.49,1.96-5.49,5.59s1.93,5.6,5.49,5.6,5.49-1.99,5.49-5.6-1.93-5.59-5.49-5.59Z"/><path class="g" d="M103.2,42.11c1.93,0,2.98,1.22,2.98,3.53s-1.05,3.55-2.98,3.55-3-1.24-3-3.55,1.07-3.53,3-3.53m0-2.06c-3.56,0-5.49,1.96-5.49,5.59s1.93,5.6,5.49,5.6,5.49-1.99,5.49-5.6-1.93-5.59-5.49-5.59Z"/><path class="f" d="M210.42,41.11c.05-.17,.09-.3,.09-.33,0-.41-1.2-.75-2.86-.75-2.48,0-4.02,1.43-4.02,3.03,0,2.99,4.51,3.34,4.51,4.96,0,.6-.59,1.17-1.6,1.17-1.09,0-2.25-.34-3.06-1.1l-.19,2v.05c0,.66,1.28,1.05,3.19,1.05,2.76,0,4.33-1.53,4.32-3.31-.02-2.42-1.42-2.61-3.08-3.58-1.03-.6-1.74-.98-1.62-1.61,.09-.49,.45-.78,1.27-.78,.74,0,1.78,.12,2.63,.69l.42-1.48"/><path class="f" d="M183.72,40.23h-3.07c-.31,0-.61,0-.93-.06-.22,.71-.53,1.38-.94,2.09,1-.23,1.76-.33,2.26-.33l.05,.02c.63,3.67,4.37,9.31,4.37,9.31h.42l4.6-9.21c.41-.79,.82-1.4,1.19-1.8h-3.17c0,.23-.08,.52-.24,.86l-2.43,5.93c-3.34-5.44-2.12-6.8-2.12-6.8"/><path class="f" d="M221.24,41.2c.03-.11,.06-.19,.06-.22,0-.35-1.55-.93-3.47-.93-3.36,0-5.39,2.18-5.39,5.64s2.01,5.56,5.48,5.56c1.68,0,2.87-.5,3.09-.74,.14-.14,.16-.33,.16-.6v-2.01c-.72,.74-1.87,1.19-3.08,1.19-1.9,0-3.12-1.24-3.12-3.44s1.19-3.55,3.14-3.55c.89,0,1.81,.31,2.56,.88l.57-1.79"/><path class="g" d="M228.33,42.11c1.93,0,2.98,1.22,2.98,3.53s-1.05,3.55-2.98,3.55-3-1.24-3-3.55,1.07-3.53,3-3.53m0-2.06c-3.56,0-5.49,1.96-5.49,5.59s1.93,5.6,5.49,5.6,5.49-1.99,5.49-5.6-1.93-5.59-5.49-5.59Z"/><path class="f" d="M92.92,48.85c-.22,.17-.71,.3-1.42,.3-1.68,0-2.85-1.35-2.85-3.48,0-2.25,1.25-3.58,3.41-3.58,.93,0,2.01,.33,2.71,.85l.5-1.55c.03-.08,.05-.12,.05-.17,0-.28,0-.35-.4-.52-.88-.39-1.98-.63-3.13-.63-3.58,0-5.84,2.18-5.84,5.56s2.15,5.63,5.71,5.63c1.22,0,2.66-.3,3.63-.75v-3.33c-.02-1.47,.46-2.11,.46-2.11h-3.2c-.31,0-.61,0-.93-.06-.22,.71-.53,1.38-.94,2.09,1.01-.24,1.76-.33,2.26-.33h.04v1.98l-.07,.12"/><path class="f" d="M111.67,41.83c-.48,.04-1.1,.13-1.88,.32,.41-.71,.72-1.38,.94-2.09,.31,.06,.61,.06,.93,.06h2.01c.33,0,1.75,0,2.57,0,1.79,0,2.97,1.16,2.97,2.73,0,1.05-.46,1.88-1.29,2.37,1.07,.5,1.63,1.41,1.63,2.53,0,2.04-1.52,3.34-4.47,3.34-.74,0-1.96-.08-2.8-.08-.17,0-.5,.02-.99,.05,.3-.6,.39-1.15,.39-1.76v-7.47m2.35,7.41c.3,.05,.98,.06,1.2,.06,1.16,0,1.85-.6,1.85-1.6s-.64-1.6-1.82-1.6c-.27,0-.95,.02-1.23,.03v3.11Zm0-4.69c.28,.03,.89,.05,.95,.05,1.26,0,1.88-.44,1.88-1.38,0-.8-.55-1.32-1.46-1.32-.36,0-1.06,.08-1.38,.27v2.39Z"/><path class="f" d="M151.47,40.22h.72l5.26,7.26v-5.2c0-.9-.14-1.59-.46-2.06h3.3c-.35,.53-.46,1.19-.46,2.06v7.25c0,.53,.05,1.05,.12,1.52h-2.31l-5.59-7.71v5.67c0,.83,.09,1.49,.44,2.04h-3.3c.35-.52,.46-1.18,.46-2.04v-6.73c0-.12,0-.24,0-.35-.47,.04-1.09,.14-1.85,.31,.41-.71,.72-1.38,.94-2.09,.31,.06,.61,.06,.93,.06h1.79"/><path class="f" d="M130.98,40.23h3.57c.52,0,.72,.06,.75,.47l-.47,1.63c-.42-.19-.91-.19-1.48-.19h-1.9v2.31h2.39c.36,0,.69,0,1.02-.09l-.42,2.03c-.35-.06-.67-.08-.97-.08h-2.02v2.84h2.73c.71,0,1.22-.06,1.54-.22l-.3,1.49c-.13,.64-.2,.67-.94,.67-.58,0-2.08-.08-3.68-.08-.6,0-1.33,.02-2.2,.05,.35-.69,.42-1.33,.42-2.04v-6.8c0-.09,0-.18,0-.27-.45,.04-1.02,.14-1.7,.3,.41-.71,.72-1.38,.94-2.09,.31,.06,.61,.06,.93,.06h1.8"/><path class="f" d="M122.18,40.23c.33,.5,.46,1.18,.46,2.06v6.73c0,.88-.13,1.54-.46,2.04h3.42c-.33-.49-.46-1.15-.46-2.04v-6.73c0-.9,.13-1.57,.46-2.06h-3.42"/><path class="g" d="M138.52,41.98c-.45,.04-1.02,.14-1.71,.3,.41-.71,.72-1.38,.94-2.09,.31,.06,.61,.06,.93,.06h2.32c.32,0,.64-.02,.97-.02,2.58,0,3.86,1.29,3.86,3.27,0,1.25-.55,2.26-1.54,2.78,0,0,1.8,4.22,3.85,5.44-1.08,.51-3.99-.76-4.91-2.5l-1.51-2.36c-.3,.03-.21,.04-.54,.04h-.33v2.15c0,.89,.17,1.59,.47,2.04h-3.25c.35-.52,.46-1.18,.46-2.04v-6.75c0-.11,0-.21,0-.32m2.33,3.05c.16,.02,.24,.03,.27,.03h.42c1.34,0,2.01-.6,2.01-1.57s-.66-1.51-1.92-1.51c-.27,0-.53,.03-.79,.06v2.98Z"/><path class="g" d="M197.18,41.97c-1.37,1.57-2.12,3.6-2.33,4.18l1.86,.95,1.95-.97s-.4-2.54-1.48-4.16m1.78,6.11c.09,.75,.23,1.77-.07,2.99h2.86c-.16-4.47-1.38-8.26-3.34-10.83h-3.96c-.31,0-.61,0-.93-.06-.22,.71-.53,1.38-.94,2.09,1.01-.24,1.76-.33,2.26-.33h.27c-2.37,2.62-3.6,5.62-3.6,8.89v.25h2.72c-.24-1.31-.09-2.3,.09-3.09l2.37,1.2,2.27-1.1Z"/><rect class="f" x="56.56" y="34.96" width="206.71" height="1.01"/><path class="d" d="M64.39,41.79h-.33v13.16h.33c.29-.54,.83-.59,1.42-.72-.04-1.56,1.13-1.41,1.13-1.41-.38-1.94,.93-3.7,.93-3.7-.84-2.02,.55-2.4,.55-2.4,.13-.63,.26-.84-.16-1,.3-.72-.29-1.14-.63-1.05,.29-1.05-1.49-1.39-1.61-.93-1.7-.46-1.62-1.94-1.62-1.94Z"/><path class="k" d="M64.39,41.79h-.33v13.16h.33c.29-.54,.83-.59,1.42-.72-.04-1.56,1.13-1.41,1.13-1.41-.38-1.94,.93-3.7,.93-3.7-.84-2.02,.55-2.4,.55-2.4,.13-.63,.26-.84-.16-1,.3-.72-.29-1.14-.63-1.05,.29-1.05-1.49-1.39-1.61-.93-1.7-.46-1.62-1.94-1.62-1.94Z"/><path class="d" d="M64.39,53.68h-.33v5.76h.33c3.03,.9,3.77-1.37,3.77-1.37,1.73-.04,1.49-1.51,1.49-1.51,.98-.54,.44-1.79,.44-1.79,.98-1.13-.51-2.18-.51-2.18,.18-.61,.44-.43,.44-.43-.13-.24-.04-.71-.04-.71l-.99,.67c-.59,.24-.32-.1-.32-.1-.25-1.22,.35-1.74,.76-2.14,1.18,.76,1.76-.13,1.76-.13,2.1,.8,2.37-1.64,2.37-1.64,2.31,.24,1.98-2.08,1.98-2.08,1.55-.34,1.7-1.77,.59-1.96-.08-1.7-2.08-.73-2.16-.01-1.88-1.41-2.17,.96-2.17,.96-1.37-.51-2.85,1.2-2.63,2.03-1.34,.81-.46,2.16-.46,2.16-1.42,1.74-.74,3.24-.74,3.24-2.06-.08-2.14,1.31-2.14,1.31-.82-.74-1.45-.08-1.45-.08Z"/><path class="k" d="M64.39,53.68h-.33v5.76h.33c3.03,.9,3.77-1.37,3.77-1.37,1.73-.04,1.49-1.51,1.49-1.51,.98-.54,.44-1.79,.44-1.79,.98-1.13-.51-2.18-.51-2.18,.18-.61,.44-.43,.44-.43-.13-.24-.04-.71-.04-.71l-.99,.67c-.59,.24-.32-.1-.32-.1-.25-1.22,.35-1.74,.76-2.14,1.18,.76,1.76-.13,1.76-.13,2.1,.8,2.37-1.64,2.37-1.64,2.31,.24,1.98-2.08,1.98-2.08,1.55-.34,1.7-1.77,.59-1.96-.08-1.7-2.08-.73-2.16-.01-1.88-1.41-2.17,.96-2.17,.96-1.37-.51-2.85,1.2-2.63,2.03-1.34,.81-.46,2.16-.46,2.16-1.42,1.74-.74,3.24-.74,3.24-2.06-.08-2.14,1.31-2.14,1.31-.82-.74-1.45-.08-1.45-.08Z"/><path class="d" d="M45.28,6.98c-1.79-.96-1.02-2.21-1.02-2.21-2.03-.38-1.23-2.52-1.23-2.52-1.67-1.45,0-2.82,1.54-1.61,1.6-1.41,2.58,1.35,2.58,1.35,2.11-.95,2.13,2.17,2.13,2.17l1.08-.19c2.23,.51,.67,1.63,.67,1.63,.64,.77-.24,1.38-.24,1.38v.39h-5.37l-.14-.39Z"/><path class="k" d="M45.28,6.98c-1.79-.96-1.02-2.21-1.02-2.21-2.03-.38-1.23-2.52-1.23-2.52-1.67-1.45,0-2.82,1.54-1.61,1.6-1.41,2.58,1.35,2.58,1.35,2.11-.95,2.13,2.17,2.13,2.17l1.08-.19c2.23,.51,.67,1.63,.67,1.63,.64,.77-.24,1.38-.24,1.38v.39h-5.37l-.14-.39Z"/><path class="d" d="M52.98,7l-.25-.75c-.55-2.62,2.42-2.32,2.42-2.32l1.3,.26c1.84-1.74,3.19,.37,3.19,.37,1.98-1.19,2.93,1.47,3.1,2.44-.02,0-.04,.37-.04,.37h-9.72v-.37Z"/><path class="k" d="M52.98,7l-.25-.75c-.55-2.62,2.42-2.32,2.42-2.32l1.3,.26c1.84-1.74,3.19,.37,3.19,.37,1.98-1.19,2.93,1.47,3.1,2.44-.02,0-.04,.37-.04,.37h-9.72v-.37Z"/><polygon class="d" points="52.26 5.79 52.09 7.37 51.5 7.37 51.71 5.75 52.26 5.79"/><polygon class="k" points="52.26 5.79 52.09 7.37 51.5 7.37 51.71 5.75 52.26 5.79"/><path class="r" d="M51.59,5.76l.5,.09c.87,.18,1.72-1.55,1.72-1.55l-.49-.12,.18-.74c.37-1.63-.7-1.69-.7-1.69-1.1-.34-1.44,1.16-1.44,1.16l-.18,.74-.52-.13c-.29,1.89,.93,2.24,.93,2.24Z"/><path class="k" d="M51.59,5.76l.5,.09c.87,.18,1.72-1.55,1.72-1.55l-.49-.12,.18-.74c.37-1.63-.7-1.69-.7-1.69-1.1-.34-1.44,1.16-1.44,1.16l-.18,.74-.52-.13c-.29,1.89,.93,2.24,.93,2.24Z"/><path class="e" d="M65.92,22.14l-1.07,1.25c2.33,1.17,2.5,4.17,2.5,4.17,1.08,.52,.76,.31,.76,.31-.65-1.34-.41-3.08-.41-3.08-1.6-.63-1.84-1.83-1.79-2.65Zm.59-3.56h0c-.03-.14-.05-.27-.07-.4-.38-2.54,1.58-2.05,1.58-2.05-.07-.74,.62-1.23,.62-1.23-.06-1.84,1.37-2.05,1.37-2.05,1.6,.29,1.31,1.26,.99,1.76,1.75,.23,.52,2.34,.52,2.34,.83,1.37-.43,2.49-.43,2.49,.78,1.87-.67,2.56-.67,2.56,.44,2.43-2.08,2.93-2.08,2.93,.04,2.67,.67,2.71,.67,2.71,.15-.73,.82-.94,.99-1.5-.34-.46,.02-1.26,.02-1.26,1.35-.63,1.14-2.61,1.14-2.61,1.18-.59,.92-2.55,.71-2.8,.46-1.18,1.21-.98,1.37-.29,2.29-1.52,1.74,1.15,1.45,1.52,1,1.86-.34,2.4-.34,2.4,.39,1.47-1.09,1.97-1.09,1.97,0,0,.25,1.02-1.1,1.14-.25,.51-.42,1.1-1.77,.46-.87,.71-.8,2.02-.8,2.02-.08,2.02,.16,2.48,.16,2.48l1.06-1.22c.55,.14,.57,.48,.57,.48-.5,.52-1.04,1.13-1.04,1.13-.59,1.85-.34,4.72-.34,4.72,.3,2.78-1.1,2.53-1.1,2.53,.76,.84-.42,1.69-.42,1.69-.26,.33-1.01,1.01-1.01,1.01-.28,.83,.92,1,1.08,1.04,.35-1.02,.31-1.9,1.79-3.06-.76-1.1,.51-1.87,.51-1.87,0,0-1.12-1.57-.03-2.74,.53-.44-.02-.95-.02-.95,0,0-.22-2.18,1.93-2.46-.07-1.37,1.41-1.58,1.41-1.58,.59-1.73,1.76-1.03,1.89-.48,1.77-.55,1.9,1.31,1.31,1.81,1.43,1.94-.73,3.38-.73,3.38,1.23,1.21-1,2.44-1,2.44,.59,.84-.08,1.81-1.81,1.9-.72,1.54-2.84,.96-2.84,.96-2.41,1.95-1.15,3.16-1.15,3.16l1.04-.64c.17,.25,.29,.46,.29,.46-1.42,1.08-1.26,1.97-1.26,1.97-.05-.03,.4,.19,.38,.41-.54,.21-.75,.71-.75,.71-.85-3.29-1.75-2.31-2.51-3.48-.81,0-2.08-.49-2.18-1.58-.17-.33-.45-.02-.45-.02h-.33v-9.18h.34c2.47,.02,2.41,1.81,2.41,1.81,1.52,0,1.27,1.1,1.27,1.1,1.6-.08,1.18,1.85,1.18,1.85,.38-.65,0-3.01,0-3.01-1.08,.2-1.52-1.04-1.52-1.04-1.62-.29-2-2.17-2-2.17-.76,.3-1.34-.37-1.34-.37h-.33V9.05h.33c2.93,.11,2.79,2.74,2.79,2.74,1.3,.59,1.37,1.34,1.37,1.34-.47,.27-.65,.59-.73,1.43-.5,.42-.59,.97-.59,.97-2.43,.76-.72,3.06-.71,3.06Z"/><path class="k" d="M65.92,22.14l-1.07,1.25c2.33,1.17,2.5,4.17,2.5,4.17,1.08,.52,.76,.31,.76,.31-.65-1.34-.41-3.08-.41-3.08-1.6-.63-1.84-1.83-1.79-2.65Zm.59-3.56h0c-.03-.14-.05-.27-.07-.4-.38-2.54,1.58-2.05,1.58-2.05-.07-.74,.62-1.23,.62-1.23-.06-1.84,1.37-2.05,1.37-2.05,1.6,.29,1.31,1.26,.99,1.76,1.75,.23,.52,2.34,.52,2.34,.83,1.37-.43,2.49-.43,2.49,.78,1.87-.67,2.56-.67,2.56,.44,2.43-2.08,2.93-2.08,2.93,.04,2.67,.67,2.71,.67,2.71,.15-.73,.82-.94,.99-1.5-.34-.46,.02-1.26,.02-1.26,1.35-.63,1.14-2.61,1.14-2.61,1.18-.59,.92-2.55,.71-2.8,.46-1.18,1.21-.98,1.37-.29,2.29-1.52,1.74,1.15,1.45,1.52,1,1.86-.34,2.4-.34,2.4,.39,1.47-1.09,1.97-1.09,1.97,0,0,.25,1.02-1.1,1.14-.25,.51-.42,1.1-1.77,.46-.87,.71-.8,2.02-.8,2.02-.08,2.02,.16,2.48,.16,2.48l1.06-1.22c.55,.14,.57,.48,.57,.48-.5,.52-1.04,1.13-1.04,1.13-.59,1.85-.34,4.72-.34,4.72,.3,2.78-1.1,2.53-1.1,2.53,.76,.84-.42,1.69-.42,1.69-.26,.33-1.01,1.01-1.01,1.01-.28,.83,.92,1,1.08,1.04,.35-1.02,.31-1.9,1.79-3.06-.76-1.1,.51-1.87,.51-1.87,0,0-1.12-1.57-.03-2.74,.53-.44-.02-.95-.02-.95,0,0-.22-2.18,1.93-2.46-.07-1.37,1.41-1.58,1.41-1.58,.59-1.73,1.76-1.03,1.89-.48,1.77-.55,1.9,1.31,1.31,1.81,1.43,1.94-.73,3.38-.73,3.38,1.23,1.21-1,2.44-1,2.44,.59,.84-.08,1.81-1.81,1.9-.72,1.54-2.84,.96-2.84,.96-2.41,1.95-1.15,3.16-1.15,3.16l1.04-.64c.17,.25,.29,.46,.29,.46-1.42,1.08-1.26,1.97-1.26,1.97-.05-.03,.4,.19,.38,.41-.54,.21-.75,.71-.75,.71-.85-3.29-1.75-2.31-2.51-3.48-.81,0-2.08-.49-2.18-1.58-.17-.33-.45-.02-.45-.02h-.33v-9.18h.34c2.47,.02,2.41,1.81,2.41,1.81,1.52,0,1.27,1.1,1.27,1.1,1.6-.08,1.18,1.85,1.18,1.85,.38-.65,0-3.01,0-3.01-1.08,.2-1.52-1.04-1.52-1.04-1.62-.29-2-2.17-2-2.17-.76,.3-1.34-.37-1.34-.37h-.33V9.05h.33c2.93,.11,2.79,2.74,2.79,2.74,1.3,.59,1.37,1.34,1.37,1.34-.47,.27-.65,.59-.73,1.43-.5,.42-.59,.97-.59,.97-2.43,.76-.72,3.06-.71,3.06Z"/><path class="r" d="M70.84,30.19l.39,.26c.66,.47,2-.65,2-.65l-.36-.28,.43-.54c.91-1.21,.05-1.66,.05-1.66-.79-.69-1.63,.43-1.63,.43l-.43,.54-.38-.3c-.94,1.46-.06,2.2-.06,2.2Z"/><path class="k" d="M70.84,30.19l.39,.26c.66,.47,2-.65,2-.65l-.36-.28,.43-.54c.91-1.21,.05-1.66,.05-1.66-.79-.69-1.63,.43-1.63,.43l-.43,.54-.38-.3c-.94,1.46-.06,2.2-.06,2.2Z"/><path class="r" d="M70.93,42.54l.25,.39c.42,.69,2.09,.18,2.09,.18l-.22-.4,.61-.34c1.31-.76,.69-1.51,.69-1.51-.46-.94-1.67-.24-1.67-.24l-.6,.33-.24-.42c-1.44,.98-.92,2.01-.92,2.01Z"/><path class="k" d="M70.93,42.54l.25,.39c.42,.69,2.09,.18,2.09,.18l-.22-.4,.61-.34c1.31-.76,.69-1.51,.69-1.51-.46-.94-1.67-.24-1.67-.24l-.6,.33-.24-.42c-1.44,.98-.92,2.01-.92,2.01Z"/><path class="r" d="M69.91,51.84l.1,.45c.16,.79,1.9,.89,1.9,.89l-.07-.45,.68-.11c1.49-.27,1.17-1.18,1.17-1.18-.1-1.04-1.48-.79-1.48-.79l-.68,.11-.08-.48c-1.69,.43-1.55,1.57-1.55,1.57Z"/><path class="k" d="M69.91,51.84l.1,.45c.16,.79,1.9,.89,1.9,.89l-.07-.45,.68-.11c1.49-.27,1.17-1.18,1.17-1.18-.1-1.04-1.48-.79-1.48-.79l-.68,.11-.08-.48c-1.69,.43-1.55,1.57-1.55,1.57Z"/><path class="d" d="M13.61,41.79h.4v13.16h-.4c-.29-.54-.82-.59-1.41-.72,.04-1.56-1.13-1.41-1.13-1.41,.38-1.94-.93-3.7-.93-3.7,.84-2.02-.55-2.4-.55-2.4-.13-.63-.26-.84,.16-1-.29-.72,.29-1.14,.63-1.05-.29-1.05,1.49-1.39,1.61-.93,1.7-.46,1.62-1.94,1.62-1.94Z"/><path class="k" d="M13.61,41.79h.4v13.16h-.4c-.29-.54-.82-.59-1.41-.72,.04-1.56-1.13-1.41-1.13-1.41,.38-1.94-.93-3.7-.93-3.7,.84-2.02-.55-2.4-.55-2.4-.13-.63-.26-.84,.16-1-.29-.72,.29-1.14,.63-1.05-.29-1.05,1.49-1.39,1.61-.93,1.7-.46,1.62-1.94,1.62-1.94Z"/><path class="d" d="M13.61,53.68h.4v5.76h-.4c-3.03,.9-3.76-1.37-3.76-1.37-1.73-.04-1.49-1.51-1.49-1.51-.98-.54-.44-1.79-.44-1.79-.98-1.13,.51-2.18,.51-2.18-.18-.61-.44-.43-.44-.43,.13-.24,.04-.71,.04-.71l.99,.67c.59,.24,.32-.1,.32-.1,.25-1.22-.35-1.74-.76-2.14-1.18,.76-1.76-.13-1.76-.13-2.1,.8-2.37-1.64-2.37-1.64-2.31,.24-1.98-2.08-1.98-2.08-1.55-.34-1.71-1.77-.59-1.96,.08-1.7,2.08-.73,2.16-.01,1.88-1.41,2.17,.96,2.17,.96,1.36-.51,2.85,1.2,2.63,2.03,1.34,.81,.46,2.16,.46,2.16,1.42,1.74,.74,3.24,.74,3.24,2.06-.08,2.14,1.31,2.14,1.31,.82-.74,1.45-.08,1.45-.08Z"/><path class="k" d="M13.61,53.68h.4v5.76h-.4c-3.03,.9-3.76-1.37-3.76-1.37-1.73-.04-1.49-1.51-1.49-1.51-.98-.54-.44-1.79-.44-1.79-.98-1.13,.51-2.18,.51-2.18-.18-.61-.44-.43-.44-.43,.13-.24,.04-.71,.04-.71l.99,.67c.59,.24,.32-.1,.32-.1,.25-1.22-.35-1.74-.76-2.14-1.18,.76-1.76-.13-1.76-.13-2.1,.8-2.37-1.64-2.37-1.64-2.31,.24-1.98-2.08-1.98-2.08-1.55-.34-1.71-1.77-.59-1.96,.08-1.7,2.08-.73,2.16-.01,1.88-1.41,2.17,.96,2.17,.96,1.36-.51,2.85,1.2,2.63,2.03,1.34,.81,.46,2.16,.46,2.16,1.42,1.74,.74,3.24,.74,3.24,2.06-.08,2.14,1.31,2.14,1.31,.82-.74,1.45-.08,1.45-.08Z"/><path class="d" d="M32.72,6.98c1.79-.96,1.02-2.21,1.02-2.21,2.03-.38,1.22-2.52,1.22-2.52,1.67-1.45,0-2.82-1.54-1.61-1.6-1.41-2.58,1.35-2.58,1.35-2.11-.95-2.13,2.17-2.13,2.17l-1.08-.19c-2.23,.51-.67,1.63-.67,1.63-.64,.77,.24,1.38,.24,1.38v.39h5.37l.14-.39Z"/><path class="k" d="M32.72,6.98c1.79-.96,1.02-2.21,1.02-2.21,2.03-.38,1.22-2.52,1.22-2.52,1.67-1.45,0-2.82-1.54-1.61-1.6-1.41-2.58,1.35-2.58,1.35-2.11-.95-2.13,2.17-2.13,2.17l-1.08-.19c-2.23,.51-.67,1.63-.67,1.63-.64,.77,.24,1.38,.24,1.38v.39h5.37l.14-.39Z"/><path class="d" d="M25.02,7l.25-.75c.55-2.62-2.42-2.32-2.42-2.32l-1.3,.26c-1.84-1.74-3.19,.37-3.19,.37-1.99-1.19-2.93,1.47-3.1,2.44,.02,0,.04,.37,.04,.37h9.72v-.37Z"/><path class="k" d="M25.02,7l.25-.75c.55-2.62-2.42-2.32-2.42-2.32l-1.3,.26c-1.84-1.74-3.19,.37-3.19,.37-1.99-1.19-2.93,1.47-3.1,2.44,.02,0,.04,.37,.04,.37h9.72v-.37Z"/><polyline class="d" points="25.74 5.79 25.91 7.37 26.5 7.37 26.29 5.75 25.74 5.79"/><polygon class="l" points="25.74 5.79 25.91 7.37 26.5 7.37 26.29 5.75 25.74 5.79"/><path class="r" d="M26.42,5.76l-.5,.09c-.87,.18-1.72-1.55-1.72-1.55l.49-.12-.18-.74c-.37-1.63,.7-1.69,.7-1.69,1.1-.34,1.44,1.16,1.44,1.16l.18,.74,.52-.13c.29,1.89-.93,2.24-.93,2.24Z"/><path class="k" d="M26.42,5.76l-.5,.09c-.87,.18-1.72-1.55-1.72-1.55l.49-.12-.18-.74c-.37-1.63,.7-1.69,.7-1.69,1.1-.34,1.44,1.16,1.44,1.16l.18,.74,.52-.13c.29,1.89-.93,2.24-.93,2.24Z"/><path class="e" d="M12.08,22.14l1.07,1.25c-2.33,1.17-2.5,4.17-2.5,4.17-1.08,.52-.76,.31-.76,.31,.65-1.34,.41-3.08,.41-3.08,1.6-.63,1.84-1.83,1.79-2.65Zm-.59-3.56h0c.03-.14,.05-.27,.07-.4,.38-2.54-1.58-2.05-1.58-2.05,.07-.74-.62-1.23-.62-1.23,.06-1.84-1.37-2.05-1.37-2.05-1.6,.29-1.31,1.26-.99,1.76-1.75,.23-.52,2.34-.52,2.34-.83,1.37,.43,2.49,.43,2.49-.78,1.87,.67,2.56,.67,2.56-.44,2.43,2.08,2.93,2.08,2.93-.04,2.67-.67,2.71-.67,2.71-.15-.73-.82-.94-.99-1.5,.34-.46-.02-1.26-.02-1.26-1.35-.63-1.14-2.61-1.14-2.61-1.18-.59-.92-2.55-.71-2.8-.46-1.18-1.21-.98-1.37-.29-2.29-1.52-1.75,1.15-1.45,1.52-1,1.86,.34,2.4,.34,2.4-.39,1.47,1.09,1.97,1.09,1.97,0,0-.25,1.02,1.1,1.14,.25,.51,.42,1.1,1.77,.46,.87,.71,.8,2.02,.8,2.02,.09,2.02-.16,2.48-.16,2.48l-1.06-1.22c-.55,.14-.57,.48-.57,.48,.5,.52,1.04,1.13,1.04,1.13,.59,1.85,.34,4.72,.34,4.72-.3,2.78,1.1,2.53,1.1,2.53-.76,.84,.42,1.69,.42,1.69,.26,.33,1.01,1.01,1.01,1.01,.28,.83-.92,1-1.08,1.04-.35-1.02-.31-1.9-1.79-3.06,.76-1.1-.51-1.87-.51-1.87,0,0,1.12-1.57,.02-2.74-.53-.44,.02-.95,.02-.95,0,0,.22-2.18-1.93-2.46,.07-1.37-1.41-1.58-1.41-1.58-.59-1.73-1.76-1.03-1.89-.48-1.77-.55-1.9,1.31-1.31,1.81-1.43,1.94,.72,3.38,.72,3.38-1.23,1.21,1,2.44,1,2.44-.59,.84,.09,1.81,1.81,1.9,.72,1.54,2.84,.96,2.84,.96,2.41,1.95,1.15,3.16,1.15,3.16l-1.04-.64c-.17,.25-.29,.46-.29,.46,1.42,1.08,1.26,1.97,1.26,1.97,.05-.03-.4,.19-.38,.41,.54,.21,.75,.71,.75,.71,.85-3.29,1.75-2.31,2.51-3.48,.81,0,2.08-.49,2.17-1.58,.18-.33,.45-.02,.45-.02h.4v-9.18h-.4c-2.47,.02-2.41,1.81-2.41,1.81-1.52,0-1.27,1.1-1.27,1.1-1.6-.08-1.18,1.85-1.18,1.85-.38-.65,0-3.01,0-3.01,1.07,.2,1.52-1.04,1.52-1.04,1.62-.29,2-2.17,2-2.17,.76,.3,1.34-.37,1.34-.37h.4V9.05h-.4c-2.93,.11-2.79,2.74-2.79,2.74-1.3,.59-1.37,1.34-1.37,1.34,.47,.27,.65,.59,.73,1.43,.51,.42,.59,.97,.59,.97,2.43,.76,.72,3.06,.72,3.06Z"/><path class="k" d="M12.08,22.14l1.07,1.25c-2.33,1.17-2.5,4.17-2.5,4.17-1.08,.52-.76,.31-.76,.31,.65-1.34,.41-3.08,.41-3.08,1.6-.63,1.84-1.83,1.79-2.65Zm-.59-3.56h0c.03-.14,.05-.27,.07-.4,.38-2.54-1.58-2.05-1.58-2.05,.07-.74-.62-1.23-.62-1.23,.06-1.84-1.37-2.05-1.37-2.05-1.6,.29-1.31,1.26-.99,1.76-1.75,.23-.52,2.34-.52,2.34-.83,1.37,.43,2.49,.43,2.49-.78,1.87,.67,2.56,.67,2.56-.44,2.43,2.08,2.93,2.08,2.93-.04,2.67-.67,2.71-.67,2.71-.15-.73-.82-.94-.99-1.5,.34-.46-.02-1.26-.02-1.26-1.35-.63-1.14-2.61-1.14-2.61-1.18-.59-.92-2.55-.71-2.8-.46-1.18-1.21-.98-1.37-.29-2.29-1.52-1.75,1.15-1.45,1.52-1,1.86,.34,2.4,.34,2.4-.39,1.47,1.09,1.97,1.09,1.97,0,0-.25,1.02,1.1,1.14,.25,.51,.42,1.1,1.77,.46,.87,.71,.8,2.02,.8,2.02,.09,2.02-.16,2.48-.16,2.48l-1.06-1.22c-.55,.14-.57,.48-.57,.48,.5,.52,1.04,1.13,1.04,1.13,.59,1.85,.34,4.72,.34,4.72-.3,2.78,1.1,2.53,1.1,2.53-.76,.84,.42,1.69,.42,1.69,.26,.33,1.01,1.01,1.01,1.01,.28,.83-.92,1-1.08,1.04-.35-1.02-.31-1.9-1.79-3.06,.76-1.1-.51-1.87-.51-1.87,0,0,1.12-1.57,.02-2.74-.53-.44,.02-.95,.02-.95,0,0,.22-2.18-1.93-2.46,.07-1.37-1.41-1.58-1.41-1.58-.59-1.73-1.76-1.03-1.89-.48-1.77-.55-1.9,1.31-1.31,1.81-1.43,1.94,.72,3.38,.72,3.38-1.23,1.21,1,2.44,1,2.44-.59,.84,.09,1.81,1.81,1.9,.72,1.54,2.84,.96,2.84,.96,2.41,1.95,1.15,3.16,1.15,3.16l-1.04-.64c-.17,.25-.29,.46-.29,.46,1.42,1.08,1.26,1.97,1.26,1.97,.05-.03-.4,.19-.38,.41,.54,.21,.75,.71,.75,.71,.85-3.29,1.75-2.31,2.51-3.48,.81,0,2.08-.49,2.17-1.58,.18-.33,.45-.02,.45-.02h.4v-9.18h-.4c-2.47,.02-2.41,1.81-2.41,1.81-1.52,0-1.27,1.1-1.27,1.1-1.6-.08-1.18,1.85-1.18,1.85-.38-.65,0-3.01,0-3.01,1.07,.2,1.52-1.04,1.52-1.04,1.62-.29,2-2.17,2-2.17,.76,.3,1.34-.37,1.34-.37h.4V9.05h-.4c-2.93,.11-2.79,2.74-2.79,2.74-1.3,.59-1.37,1.34-1.37,1.34,.47,.27,.65,.59,.73,1.43,.51,.42,.59,.97,.59,.97,2.43,.76,.72,3.06,.72,3.06Z"/><path class="r" d="M7.16,30.19l-.38,.26c-.66,.47-2-.65-2-.65l.36-.28-.43-.54c-.91-1.21-.05-1.66-.05-1.66,.79-.69,1.63,.43,1.63,.43l.43,.54,.38-.3c.94,1.46,.06,2.2,.06,2.2Z"/><path class="k" d="M7.16,30.19l-.38,.26c-.66,.47-2-.65-2-.65l.36-.28-.43-.54c-.91-1.21-.05-1.66-.05-1.66,.79-.69,1.63,.43,1.63,.43l.43,.54,.38-.3c.94,1.46,.06,2.2,.06,2.2Z"/><path class="r" d="M7.07,42.54l-.25,.39c-.42,.69-2.09,.18-2.09,.18l.22-.4-.6-.34c-1.31-.76-.69-1.51-.69-1.51,.46-.94,1.66-.24,1.66-.24l.61,.33,.24-.42c1.44,.98,.92,2.01,.92,2.01Z"/><path class="k" d="M7.07,42.54l-.25,.39c-.42,.69-2.09,.18-2.09,.18l.22-.4-.6-.34c-1.31-.76-.69-1.51-.69-1.51,.46-.94,1.66-.24,1.66-.24l.61,.33,.24-.42c1.44,.98,.92,2.01,.92,2.01Z"/><path class="r" d="M8.09,51.84l-.11,.45c-.16,.79-1.9,.89-1.9,.89l.07-.45-.68-.11c-1.49-.27-1.17-1.18-1.17-1.18,.1-1.04,1.48-.79,1.48-.79l.68,.11,.08-.48c1.69,.43,1.55,1.57,1.55,1.57Z"/><path class="k" d="M8.09,51.84l-.11,.45c-.16,.79-1.9,.89-1.9,.89l.07-.45-.68-.11c-1.49-.27-1.17-1.18-1.17-1.18,.1-1.04,1.48-.79,1.48-.79l.68,.11,.08-.48c1.69,.43,1.55,1.57,1.55,1.57Z"/><path class="r" d="M20.43,67.3s13.31-.14,18,4.76l.57,.65V35.53h25.05V7.35H14.01V60.34s.7,6.13,6.42,6.96"/><path class="d" d="M30.17,49.24c-.39,1.8-2.5,2.5-2.5,2.5v2.9h-1.99v-2.9c-2.16-.78-2.53-2.5-2.53-2.5-.39,1.8-2.48,2.5-2.48,2.5v2.9h-1.99v-2.9c-2.16-.78-2.53-2.5-2.53-2.5-1.1-4.55,1.79-8.33,1.79-8.33,1.75-2.97,3.44,0,3.44,0,.96,1.26,1.51,2.59,1.78,3.81,.57-2.28,1.78-3.81,1.78-3.81,1.75-2.97,3.44,0,3.44,0,.96,1.26,1.46,2.57,1.73,3.79,.57-2.27,1.73-3.79,1.73-3.79,1.75-2.97,3.44,0,3.44,0,2.92,3.83,1.79,8.33,1.79,8.33-.39,1.8-2.5,2.5-2.5,2.5v2.9h-1.99v-2.9c-2.16-.78-2.41-2.5-2.41-2.5"/><path class="q" d="M39,54.29s-1.57,1.56-3.19,.34c0,0-2.02-1.25-4.22,0,0,0-1.42,1.32-2.87,0,0,0-2.12-1.18-4.38,.14,0,0-1.25,1.04-2.6-.1,0,0-2.09-1.18-4.11,.07,0,0-1.15,.98-2.16,.35l-1.47-.84v6.1s.7,6.13,6.42,6.96c0,0,13.31-.14,18,4.76l.57,.65v-18.43"/><path class="f" d="M39,59.62s-1.57,1.56-3.19,.34c0,0-2.02-1.25-4.22,0,0,0-1.42,1.32-2.87,0,0,0-2.12-1.18-4.38,.13,0,0-1.25,1.05-2.6-.1,0,0-2.09-1.18-4.11,.07,0,0-1.15,.98-2.16,.35l-1.47-.84v-2.36l1.47,.84c1.01,.63,2.16-.35,2.16-.35,2.02-1.25,4.11-.07,4.11-.07,1.35,1.15,2.6,.1,2.6,.1,2.26-1.32,4.38-.14,4.38-.14,1.45,1.32,2.87,0,2.87,0,2.19-1.25,4.22,0,4.22,0,1.62,1.21,3.19-.38,3.19-.38v2.4"/><path class="f" d="M14.82,62.99l.66,.38c1.01,.63,2.16-.35,2.16-.35,2.02-1.25,4.11-.07,4.11-.07,1.35,1.15,2.6,.1,2.6,.1,2.26-1.32,4.38-.14,4.38-.14,1.45,1.32,2.87,0,2.87,0,2.19-1.25,4.22,0,4.22,0,1.62,1.21,3.19-.38,3.19-.38v2.4s-1.57,1.56-3.19,.34c0,0-2.02-1.25-4.22,0,0,0-1.42,1.32-2.87,0,0,0-2.12-1.18-4.38,.13,0,0-1.25,1.04-2.6-.1,0,0-2.09-1.18-4.11,.07,0,0-.27,.24-.66,.4-.2-.12-.66-.45-1.18-1.13-.41-.54-.81-1.14-.98-1.67"/><path class="f" d="M39,72.72l-.57-.65c-.38-.45-1.46-1.27-2.75-1.95-1.29-.59-2.62-1.11-4.55-1.6,.29-.15,.47-.26,.47-.26,2.19-1.25,4.22,0,4.22,0,1.62,1.21,3.19-.38,3.19-.38v4.84"/><path class="h" d="M24.73,27.87l.49-.47-.12-.18,.36-1.64,.25-.02,.15-2.82-.29-.14,.22-4.01,.84-1.08s.13-.34,.61-.44c0,0,.62-.27,.99,.34,0,0,.56-.05,.64,.47,0,0,.46-.08,.54,.52,0,0,.64-.03,.47,.56l-.3,.4s-.3,.2-.02,.49l-.1,.32s-.13,.4-.79,.39c0,0-.47-.05-.42,.45l.34,1.79h-.42l.47,4.11,.24,.15-.12,1.23s.05,.22-.18,.3l-1.27,1.34-.17-.07-.3,.31-2.12-2.32"/><polyline class="t" points="22.43 19.34 22.43 17.76 23.02 17.76 23.02 18.34 23.73 18.34 23.73 17.76 24.37 17.76 24.37 20.36 23.66 20.89 23.66 23.26 24.3 24.01 24.3 27.54 16.4 27.54 16.4 24.01 16.91 23.26 16.91 20.89 16.2 20.36 16.2 17.76 16.85 17.76 16.85 18.34 17.55 18.34 17.55 17.76 18.15 17.76 18.15 19.43 19.08 19.43 19.08 16.63 19.91 16.63 19.91 17.22 20.66 17.22 20.66 16.63 21.5 16.63 21.5 19.34 22.43 19.34"/><rect class="h" x="18.66" y="21.33" width=".9" height="1.32"/><rect class="h" x="20.99" y="21.33" width=".9" height="1.32"/><path class="h" d="M19.53,27.54v-1.61c0-.46,.37-.83,.83-.83s.83,.37,.83,.83v1.61h-1.66"/><polyline class="f" points="28 31.47 24.43 27.54 16.3 27.54 14.01 29.71 14.01 30.54 28 31.47"/><polygon class="n" points="28 31.47 24.43 27.54 16.3 27.54 14.01 29.71 14.01 30.54 28 31.47"/><polyline class="p" points="28 31.47 24.43 27.54 16.3 27.54 14.01 29.71 14.01 30.54 28 31.47"/><path class="d" d="M36.44,70.53c-1.38,2.43-3.83,2.82-3.83,2.82-2.37,.1-2.66-1.75-2.66-1.75-1.38,1.38-3.17,1.32-3.17,1.32-2.43-.13-2.09-2.16-2.09-2.16-1.35,.81-2.43,.2-2.43,.2-1.08-.88-2.53-.71-2.53-.71-1.35,.07-2.56,.58-2.56,.58-.27-.61,0-1.08,0-1.08,1.58-.57,3-.62,3-.62,.83,.13,1.85,.3,2.5,.61,.84,.37,1.69-.13,1.69-.13,.47-.3,1.52-1.99,1.52-1.99,.48,.05,.81,.08,1.45,.19-.39,.62-1.52,1.64-1.58,2.52-.1,.47,.2,.98,.54,1.21,.71,.42,1.69,.08,2.26-.32,.47-.37,1.25-.97,1.89-2.87,.52,.11,1.11,.26,1.62,.4-.45,.55-1.42,1.57-1.14,2.41,.17,.59,1.03,.94,1.53,.94,.96,.05,2.19-1.16,2.75-2.22,0,0,.82,.4,1.24,.65"/><path class="d" d="M41.57,70.53c1.38,2.43,3.83,2.82,3.83,2.82,2.36,.1,2.66-1.75,2.66-1.75,1.38,1.38,3.17,1.32,3.17,1.32,2.43-.13,2.09-2.16,2.09-2.16,1.35,.81,2.43,.2,2.43,.2,1.08-.88,2.53-.71,2.53-.71,1.35,.07,2.56,.58,2.56,.58,.27-.61,0-1.08,0-1.08-1.59-.57-3-.62-3-.62-.83,.13-1.85,.3-2.5,.61-.84,.37-1.69-.13-1.69-.13-.47-.3-1.52-1.99-1.52-1.99-.48,.05-.95,.14-1.45,.21,.39,.63,1.52,1.63,1.57,2.5,.1,.47-.2,.98-.54,1.21-.71,.42-1.69,.08-2.26-.32-.47-.37-1.25-.97-1.89-2.87-.52,.11-1.11,.26-1.62,.4,.45,.55,1.43,1.57,1.13,2.41-.17,.59-1.03,.94-1.53,.94-.96,.05-2.22-1.2-2.78-2.26,0,0-.78,.44-1.21,.69"/><path class="o" d="M39,72.72l.56-.65c4.69-4.9,18-4.76,18-4.76,5.72-.83,6.49-6.96,6.49-6.96v-24.81h-25.05v37.19"/><rect class="f" x="43.41" y="11.87" width="16.24" height="19.08"/><rect class="u" x="43.41" y="11.87" width="16.24" height="19.08"/><polyline class="f" points="50.09 13.99 52.96 13.99 52.96 19.14 58.09 19.12 58.09 21.99 44.97 21.99 44.97 19.12 50.08 19.12 50.09 13.99"/><path class="d" d="M48.78,24.84h5.63c1.82-.44,1.45-2.4,1.45-2.4,2.16-2.02,0-3.68,0-3.68,.3-2.87-2.6-2.56-2.6-2.56-1.86-2.12-3.58,0-3.58,0-2.9,.03-2.53,2.56-2.53,2.56-2.09,2.06,0,3.51,0,3.51-.03,2.46,1.62,2.56,1.62,2.56"/><path class="t" d="M50.4,27.11v-1.82s-.15-.33-.56-.45h3.27s-.51,.15-.47,.45v1.82s-.02,.44,.59,.81h6.42v3.03h-16.24v-3.03h6.46s.52-.24,.53-.81"/><path class="j" d="M33.01,19.16h-1.13v.94l.89,.07c.74,.32,.44,1.05,.44,1.05-.47,.81-1.33-.04-1.33-.04l-1.21-1.58-.15,.96h-.93l2.02,2.6-1.6,1.41h1.06v.96l1.53-1.13,.76,.84-1.4,2.27c-.32,.64,.47,1.01,.47,1.01l-1.39,2.38,.83-.13,.44,.84,1.62-2.73-.03-.56,.81-1.18v1.65c.33,.81,.98,.54,.98,.54v2.6l.74-.52,.81,.64v-3.27h-.42v-6.73l.86-.72-.84-.71-.57,.57v3.86l-1.07-1.42,.58-1.62h-.54l.63-1.68h-.61l.76-1.6h-2.98v.4"/><polyline class="o" points="39.9 8.88 40.49 8.28 41.45 9.24 42.41 8.28 43.01 8.88 42.05 9.83 43.01 10.79 42.41 11.39 41.45 10.43 40.49 11.39 39.9 10.79 40.86 9.83 39.9 8.88"/><polyline class="o" points="39.9 20.46 40.49 19.86 41.45 20.82 42.41 19.86 43.01 20.46 42.05 21.42 43.01 22.38 42.41 22.97 41.45 22.01 40.49 22.97 39.9 22.38 40.86 21.42 39.9 20.46"/><polyline class="o" points="39.9 32.04 40.49 31.45 41.45 32.41 42.41 31.45 43.01 32.04 42.05 33 43.01 33.96 42.41 34.56 41.45 33.6 40.49 34.56 39.9 33.96 40.86 33 39.9 32.04"/><polyline class="o" points="60.05 8.88 60.64 8.28 61.6 9.24 62.56 8.28 63.15 8.88 62.19 9.83 63.15 10.79 62.56 11.39 61.6 10.43 60.64 11.39 60.05 10.79 61 9.83 60.05 8.88"/><polyline class="o" points="60.05 20.46 60.64 19.86 61.6 20.82 62.56 19.86 63.15 20.46 62.19 21.42 63.15 22.38 62.56 22.97 61.6 22.01 60.64 22.97 60.05 22.38 61 21.42 60.05 20.46"/><polyline class="o" points="60.05 32.04 60.64 31.45 61.6 32.41 62.56 31.45 63.15 32.04 62.19 33 63.15 33.96 62.56 34.56 61.6 33.6 60.64 34.56 60.05 33.96 61 33 60.05 32.04"/><polyline class="o" points="49.97 8.88 50.57 8.28 51.53 9.24 52.49 8.28 53.08 8.88 52.12 9.83 53.08 10.79 52.49 11.39 51.53 10.43 50.57 11.39 49.97 10.79 50.93 9.83 49.97 8.88"/><polyline class="o" points="49.97 32.04 50.57 31.45 51.53 32.41 52.49 31.45 53.08 32.04 52.12 33 53.08 33.96 52.49 34.56 51.53 33.6 50.57 34.56 49.97 33.96 50.93 33 49.97 32.04"/><rect class="l" x="43.41" y="11.87" width="16.24" height="19.08"/><polyline class="i" points="17.98 9.19 17.48 8.94 17.74 9.42 25.67 17.53 24.74 18.52 25.04 18.79 27.86 15.74 27.56 15.43 26.56 16.52 17.98 9.19"/><path class="u" d="M39,59.62s-1.57,1.56-3.19,.34c0,0-2.02-1.25-4.22,0,0,0-1.42,1.32-2.87,0,0,0-2.12-1.18-4.38,.13,0,0-1.25,1.05-2.6-.1,0,0-2.09-1.18-4.11,.07,0,0-1.15,.98-2.16,.35l-1.47-.84v-2.36l1.47,.84c1.01,.63,2.16-.35,2.16-.35,2.02-1.25,4.11-.07,4.11-.07,1.35,1.15,2.6,.1,2.6,.1,2.26-1.32,4.38-.14,4.38-.14,1.45,1.32,2.87,0,2.87,0,2.19-1.25,4.22,0,4.22,0,1.62,1.21,3.19-.38,3.19-.38v2.4"/><polyline class="d" points="39 35.53 39 32.2 14.01 30.54 14.01 35.53 39 35.53"/><path class="u" d="M14.82,62.99l.66,.38c1.01,.63,2.16-.35,2.16-.35,2.02-1.25,4.11-.07,4.11-.07,1.35,1.15,2.6,.1,2.6,.1,2.26-1.32,4.38-.14,4.38-.14,1.45,1.32,2.87,0,2.87,0,2.19-1.25,4.22,0,4.22,0,1.62,1.21,3.19-.38,3.19-.38v2.4s-1.57,1.56-3.19,.34c0,0-2.02-1.25-4.22,0,0,0-1.42,1.32-2.87,0,0,0-2.12-1.18-4.38,.13,0,0-1.25,1.04-2.6-.1,0,0-2.09-1.18-4.11,.07,0,0-.27,.24-.66,.4-.2-.12-.66-.45-1.18-1.13-.41-.54-.81-1.14-.98-1.67"/><path class="u" d="M39,72.72l-.57-.65c-.38-.45-1.46-1.27-2.75-1.95-1.29-.59-2.62-1.11-4.55-1.6,.29-.15,.47-.26,.47-.26,2.19-1.25,4.22,0,4.22,0,1.62,1.21,3.19-.38,3.19-.38v4.84"/><path class="m" d="M39.56,72.06c4.69-4.9,18-4.76,18-4.76,5.72-.83,6.49-6.96,6.49-6.96V7.35H14.01V60.34s.7,6.13,6.42,6.96c0,0,13.31-.14,18,4.76l.57,.65,.56-.65Zm-.57-64.73V72.67M13.98,35.53h50.07"/></g></g></svg>